<?xml version="1.0" encoding="utf-8"?>
<!-- Generator: Adobe Illustrator 26.0.1, SVG Export Plug-In . SVG Version: 6.00 Build 0)  -->
<svg version="1.1" id="Capa_1" xmlns="http://www.w3.org/2000/svg" xmlns:xlink="http://www.w3.org/1999/xlink" x="0px" y="0px"
	 viewBox="0 0 1350 1329" style="enable-background:new 0 0 1350 1329;" xml:space="preserve">
<style type="text/css">
	.st0{fill:#FDFDFD;}
</style>
<g>
	<path class="st0" d="M735.9,731.5c15.9,0,17.2-0.1,19.1-2.1c2.9-2.8,6.6-14.5,9.1-28.3c2.9-16.1,2.2-38.8-1.6-53.6
		c-8.4-32.2-32.4-59.3-61.6-69.7c-14.2-5-23.3-3.6-29,4.4c-2,2.7-2.4,4.5-2.3,9.9c0,5.8,0.4,7.1,2.8,10c1.5,1.8,5.8,4.8,9.4,6.7
		c10.2,5.2,18.8,11.7,24.5,18.7c6.5,7.9,13.9,21.8,16.3,30.5c4.8,18.2,3.6,39.2-3.5,58.5C713.8,731.1,714.2,731.4,735.9,731.5z"/>
	<path class="st0" d="M433,840.7c11.3-5.5,27.7-12.3,34-14.2c2.5-0.7,5.9-1.8,7.5-2.3c9.3-3.2,22.5-6.4,33.6-8.3
		c11.2-1.8,15.6-2,38.5-1.6c30.3,0.5,38.6,1.9,64.9,11c7.4,2.5,38.7,18,48.1,23.7c25.4,15.6,58.6,29.1,80.9,33
		c25.3,4.3,27.1,4.5,53,4.5c19.7,0,29.3-0.4,39.5-1.8c43.1-5.9,66.3-16.1,79.2-35c9.8-14.3,11.3-33.4,3.9-49.2
		c-4.5-9.8-15-20.1-25.6-25.4c-9.3-4.6-24.1-8.1-34.1-8.1c-6.7,0-30.1,3.5-36.4,5.4c-2.5,0.8-6.3,1.7-8.5,2.1c-2.2,0.3-6.2,1.2-9,2
		c-7.1,1.9-24.7,5.4-33,6.5c-19.2,2.5-45.8,2.1-58.5-1c-19.9-4.7-25-7-50.8-22.4c-29.8-17.8-50.6-25.6-81.3-30.5
		c-12.5-2-44.4-3.4-56.9-2.5c-8.5,0.7-30.6,4.3-39.2,6.5c-10.1,2.5-28.5,8.8-37.8,12.9c-19.9,8.7-34.8,16.8-72.5,39.5
		c-17.3,10.4-60.3,32.1-76.5,38.5c-3,1.2-10,4.1-15.5,6.5c-10.6,4.5-25.7,10.7-43.3,17.9c-5.9,2.4-15.6,6.4-21.7,8.9
		c-6,2.5-13.4,5.5-16.2,6.6c-2.9,1.2-8,3.4-11.3,5.1c-5.5,2.8-6,3.3-6,6.3c0,2.9,1.7,7.5,8.5,23.2c4.3,9.9,22.2,45.8,28.6,57.3
		c8.1,14.4,28.6,45.6,32.3,49.1c3.2,3,5.6,2.2,9-3c5.5-8.3,25.7-34.9,33.8-44.7c18.1-21.6,48.9-53.3,63.3-65.2
		c2.3-1.9,8-6.7,12.6-10.5C390.5,864.4,409.3,852.2,433,840.7z"/>
	<path class="st0" d="M832.5,274.1c5.7,3.9,9.7,9.3,17.1,23.2c6.8,12.9,12.1,19,17.5,20.2c11.4,2.5,19.8-9.5,18.6-26.5
		c-0.9-13-6.9-25.2-17.7-36.1c-6.7-6.8-13.6-10.5-22.1-11.9c-18.2-2.9-33.4,3.5-37,15.7c-1.4,5.1-0.4,6.8,4.4,7.8
		C819.1,267.6,828.4,271.3,832.5,274.1z"/>
	<path class="st0" d="M1275.9,498.5c-7.5-23.2-13.6-40.8-16.8-48.5c-1-2.5-2.9-7.2-4.1-10.5c-18.4-49-53.3-107.2-94.3-157.4
		c-11.8-14.3-48.7-52.3-63.5-65.2c-26.6-23.3-65.2-50.7-91.3-64.9c-27.6-15-71.1-35.1-91.9-42.5c-41.3-14.5-63.1-20.2-100-26
		c-5.2-0.8-11.5-1.9-14-2.5c-2.5-0.5-13.5-1.9-24.5-3c-16.4-1.6-26.4-2-54.5-1.8c-19,0-36.1,0.3-38,0.5c-1.9,0.2-10.7,1-19.5,1.9
		c-8.8,0.8-18.7,2.1-22,2.9c-3.3,0.7-8.5,1.6-11.5,2c-24.6,3.1-71.6,15-99,25c-11.5,4.2-29.4,11.7-31.5,13.1
		c-1.1,0.8-2.5,1.4-3.2,1.4c-2,0-44.6,21-57.6,28.3c-25.8,14.7-62.4,40.2-89.2,62.2c-21,17.3-61.6,58.2-73.1,73.6
		c-1,1.5-4.4,5.7-7.5,9.5c-15.4,19-42,59.9-53.9,82.9c-3.7,7.1-8.1,15.5-9.8,18.6c-1.8,3-4.8,9.6-6.7,14.5c-2,4.9-5.4,12.4-7.6,16.8
		c-4,7.8-7.2,15.8-8.9,22.7c-0.5,1.9-3.2,9.4-5.9,16.6c-4.8,12.5-13.7,45.6-18.6,68.8c-16.7,79.8-17.7,162.4-3,242
		c2,10.9,7.4,34.3,8.7,38c2.1,5.7,5.8,6.9,11.8,3.6c1.9-1,5.2-2.4,7.3-3.1c2.2-0.7,5.1-1.8,6.5-2.6c1.5-0.8,3.1-1.4,3.5-1.4
		c0.4,0,2.7-0.9,5-1.9c2.3-1.1,9.2-4,15.2-6.4c23.4-9.7,30.2-12.5,36.9-15.6c3.8-1.7,7.3-3.1,7.8-3.1c2.3,0,54.2-26.2,82.8-41.7
		c6.7-3.7,8-5.2,8-9.3c0-3.3-3.5-21.5-4.5-23c-0.7-1.2-4.5-39.2-4.5-45.5c0-3.4,0.7-12.7,1.5-20.6c3.6-33.8,13.1-61.2,29.6-85.4
		c8.7-12.8,16.6-21.5,24.3-26.8c5.2-3.5,7-4.2,12.2-4.5c5.7-0.4,6.4-0.2,9.5,2.6l3.4,3v9.4c-0.1,6.4-0.7,11.5-2.2,16.3
		c-4.4,14.9-6.4,29.6-6.4,46.6c0,16.8,0.8,22.6,6.8,46.8c2.9,11.7,12.5,35.9,15,37.8c2.6,2,4.7,1.6,15.6-3.1
		c5.6-2.4,16.9-6.5,25-9.1c8.6-2.7,15.6-5.5,16.6-6.7c1.1-1.1,3.1-6.9,4.6-13.1c5.5-22.7,14-46.9,22-62.7
		c21.6-42.8,45.1-74.3,82.6-110.5c20.4-19.7,56.8-47.7,82.6-63.5c7.3-4.5,10.3-8.5,10.3-14.1c0-10.2,10.7-50.5,19.5-73.4
		c2.9-7.7,13.2-28.6,17.4-35.3c22-35.5,38.2-54.8,62.5-74c24.5-19.6,50.4-29.8,81.8-32.4c22.8-1.9,43.6-0.1,93.8,7.7
		c8.5,1.4,17.2,3,19.3,3.7c6.6,2,6.7,2.3,6.7,30.6c0,27.4-0.5,30.5-5.4,33.7c-3.9,2.6-6.9,1.2-12.8-5.8
		c-12.8-15-27.3-26.4-39.3-30.7c-10.3-3.6-21.7-6-29-6c-12.3,0-26.9,5-26.2,9c0.1,0.8,2.5,3,5.2,4.7c20.1,13,34.9,26.5,43.1,39.1
		c2,3.2,4.5,6.9,5.5,8.4c2.3,3.3,4.3,6.9,11.5,20.5c17.3,32.6,30,42.6,67.9,53.4c27.5,7.9,28.5,8.4,28.5,14.1
		c-0.1,4-4.6,15.4-9.6,24c-6.1,10.7-11.1,17-18.6,23.6c-5.6,4.9-17.2,13.2-18.5,13.2c-0.3,0-2.4,0.9-4.7,1.9
		c-11.4,5.3-18.3,6.6-35.6,6.6c-18.7,0-20.8-0.4-47.1-10.1c-30-11.1-40.1-12.8-48.3-8.1c-5.4,3-8.6,9.3-8.6,16.6
		c0.1,9.2,3.8,17.6,15.6,35.4C894,521.6,902,545.6,902,587.4c0,26-2.6,43.5-9.7,65.6c-0.8,2.5-1.8,6.2-2.4,8.3
		c-2.1,8.3-8.3,25.8-13,36.3c-2.7,6.2-4.9,12.4-4.9,13.8c0,3.1,1.9,4.2,12,7.2c4.1,1.2,11,3.4,15.3,5c5.9,2.1,8.2,2.6,9.5,1.8
		c0.9-0.6,3.7-5.5,6-11c13.8-31.5,28.1-57.7,42.5-78.1c9.7-13.9,11.8-16.7,18.2-24.4c9.2-11.1,19.2-20.8,26-25.4
		c7.4-4.9,15.9-8.4,20.5-8.5c5.4-0.1,10-2.2,17.4-7.8c12.8-9.8,24.7-14.3,38.1-14.4c26-0.1,49.8,19.3,56,45.4
		c1.8,7.9,1.9,23.7,0.1,30.4c-1.8,6.9-8.1,22.8-11.1,28.4c-1.4,2.5-5.7,11-9.5,19c-3.9,8-8.5,17.2-10.2,20.5
		c-1.8,3.3-3.8,7.1-4.5,8.5c-1.8,3.6-5.3,11.8-5.3,12.5c0,0.4-2.9,6.4-6.3,13.3c-3.5,7-7,14.5-7.7,16.7c-0.6,2.2-4.5,10.5-8.5,18.5
		s-8.5,17.4-10.1,21c-1.5,3.6-4.3,8.8-6.1,11.6c-1.7,2.8-5.1,8.9-7.4,13.5c-5,10.1-12.8,23.1-22.6,37.7c-4,5.9-8.9,13.2-10.9,16.2
		c-7.8,11.7-32.1,38.8-48.9,54.6c-26.7,24.9-54,43.2-93,62.4c-17.5,8.5-26.2,12.1-48,19.4c-22.5,7.6-49.5,13.8-75.5,17.3
		c-19,2.5-62.5,2.6-79.5,0c-14.9-2.2-29.5-5-45-8.7c-6.6-1.5-14.7-3.3-18-3.9s-9.6-1.8-14-2.7c-11-2.2-41.5-3-54.1-1.5
		c-22,2.8-47.9,10.2-63.9,18.3c-18.5,9.4-25.4,13.7-38,23.7c-20.3,16-34.5,30.1-50.2,49.9c-18,22.7-19.3,25.4-15.4,30.4
		c4.2,5.3,39.5,30.5,60.1,42.9c22.7,13.6,58.6,32.2,72.5,37.5c3.3,1.2,8.2,3.2,10.8,4.4c6.9,3.1,31.2,11.5,45.2,15.7
		c21.9,6.5,54.8,14.2,70.5,16.5c3.6,0.5,10.4,1.6,15.2,2.4c4.8,0.8,14.7,1.9,22,2.5c7.3,0.5,16.2,1.5,19.8,2c13.1,2,49.4,2.2,66,0.5
		c8.5-0.9,20.9-2.1,27.5-2.7c6.5-0.5,14-1.4,16.5-2s8.1-1.4,12.5-2c4.4-0.5,10.9-1.5,14.5-2.4c3.6-0.8,11.9-2.6,18.5-4
		c38.8-8.4,84.8-23.5,114.5-37.7c53.3-25.4,90.3-48.3,131-81.1c34.2-27.5,74.1-69.7,98.8-104.2c3.9-5.5,8.4-11.8,10.1-14
		c3.6-4.8,18.3-28.1,24.4-38.5c2.4-4.1,6.3-10.8,8.7-14.9c5.1-8.7,20-40.4,25.4-54.1c2.1-5.2,4.4-10.9,5.2-12.5
		c0.7-1.7,2.7-7.1,4.3-12c1.7-5,4.5-12.8,6.2-17.5c1.7-4.7,3.5-10.3,4-12.5c0.5-2.2,1.6-5.8,2.3-8c1.9-5.5,6.1-22,8.6-34
		c1.2-5.5,2.8-12.5,3.6-15.6c2.5-9.7,6.6-41.5,8.9-68.4c4.1-47.2,2.3-96.9-5-144C1289.1,549,1281.5,515.7,1275.9,498.5z
		 M232.1,745.8c-13.3,7.5-28.3-5.2-24.2-20.4c1.3-4.8,6.3-9.9,11.1-11.2c4.7-1.4,4.9-1.4,9.5-0.1C243.8,718.4,246,738,232.1,745.8z
		 M724.7,1171c-11.9,0-19.9-10.2-16.8-21.5c1.4-5.4,5.8-10.3,10.6-12c4.8-1.7,7-1.8,11.4-0.5c4.3,1.2,7.7,4.4,10.3,9.4
		C745.7,1157.2,737,1171,724.7,1171z M933.2,1136.4c-6.4,4.7-27.3,12.3-53.2,19.5c-15.8,4.3-51.4,11.2-61.6,11.8l-8.1,0.6l-3.7-3.4
		c-3.4-3.1-3.8-3.9-3.9-9c-0.1-6.6,1.8-10.3,6.6-12.3c3.2-1.4,18.4-4.6,30.7-6.5c19-2.9,42.5-9.2,69.5-18.5
		c8.8-3.1,16.7-5.6,17.5-5.6c0.9,0,3.6,1,6,2.2C942,1119.8,942.1,1130,933.2,1136.4z M954.5,1044c-19.4,13-42,24.7-66.5,34.7
		c-7.4,3.1-16.2,6.7-19.5,8c-3.3,1.4-9,3.3-12.7,4.3c-6.3,1.7-6.8,1.7-10.5,0c-6.7-3-9-8.2-7.1-15.8c1.5-6.1,2.3-6.5,29.3-16.6
		c14.2-5.2,20.6-8,34-14.8c10.9-5.5,42.9-24.4,48.5-28.7c7.8-5.8,16.4-11.4,18.9-12.1c3.8-1.2,4.8-1.1,8.5,0.4
		c4.8,2,7.6,6.1,7.6,11.1C985,1021.9,979,1027.7,954.5,1044z M1016.1,1097.1c-4.9,7.8-12.2,11-20.1,8.9c-8.8-2.4-13.3-10.7-11-20.8
		c1.2-5.6,4.3-9.4,9.5-11.8c8.7-3.9,18.4,0,22.6,9.1C1019.7,1088.1,1019.4,1091.9,1016.1,1097.1z M1108.5,1016.7
		c-3.3,5-30.1,30.5-34,32.4c-8.2,3.8-14.7,1.1-18-7.5c-1.6-4.1-1.6-4.5,0.3-8.2c2.3-4.4,4.4-6.7,20-21.7c6.2-6,13.1-11.7,15.5-12.8
		c6.3-2.9,12.5-1.1,16.3,4.6C1110.7,1006.7,1110.6,1013.4,1108.5,1016.7z M1125.4,855c-2.8,6.3-6.1,12.5-11.6,21.9
		c-1.5,2.5-4.2,7.3-5.9,10.6c-4.4,8.4-11.4,18-15.3,21c-5.9,4.5-14.8,3.2-18.5-2.8c-3.8-6.3-3-9.8,5.9-24.6
		c4.3-7.2,8.6-14.4,9.4-15.9c1.9-3.6,8.8-16.6,17.5-33.2c3.9-7.4,7.4-14.4,7.7-15.5c0.4-1.1,2.4-5.6,4.4-10
		c2.1-4.4,5.3-11.3,7.1-15.3c1.8-4,4.6-8.4,6.2-9.8c2.1-1.8,4-2.4,7.5-2.4c5.2,0.1,6.5,0.8,10.5,6.1c4.4,5.8,3.8,9.2-4.8,28.5
		c-4.2,9.2-9.7,20.9-12.4,25.9C1130.5,844.4,1127,851.4,1125.4,855z M1183.5,913.6c-3.8,6.5-8.4,14.8-10.3,18.4
		c-4.9,9.3-21.7,34.1-25.8,38.1c-3.1,3-4,3.3-9.5,3.4c-5.4,0-6.3-0.3-8.5-2.8c-2-2.3-2.4-3.9-2.4-9c0-6,0.3-6.6,6.6-16.2
		c10.9-16.5,19-30.2,28-47.3c6.8-12.7,10.5-18.3,14-21.1c2.9-2.3,10.1-2.9,13.4-1.1c2.6,1.4,6,7.3,6,10.3
		C1195,890.8,1190.6,901.3,1183.5,913.6z M1234.7,742.3c-1,17.2-10.7,62.7-15.3,71.8c-5.9,11.6-16.3,13.7-23.8,4.8
		c-2.7-3.2-2.8-3.6-2.1-10.3c0.3-3.8,1.3-8.6,2-10.5c2.7-7,9-34.2,10.4-45.1c2.6-19.2,5-26.1,10.2-28.7c1.3-0.7,4.4-1.3,6.8-1.3
		c3.7,0,4.9,0.5,8.4,4l4,4.1L1234.7,742.3z"/>
	<path class="st0" d="M963.5,771c5,0,8.5-4.2,15.5-18.7c8-16.5,17.4-33,27.2-47.3c19.8-29,36.7-46.7,58.6-61.1
		c14.3-9.4,18.6-13.6,19.6-19.4c1.5-7.6-4-16.4-11.5-18.5c-3.8-1.1-5-1.1-9.6,0c-3.6,0.8-16.7,8.8-27.1,16.4
		c-15.4,11.4-38.4,38.5-52.9,62.3c-11.9,19.6-14.4,24.1-23.8,43.7c-10.7,22.5-11.2,25-7,33.2C955.9,768.1,959.3,771,963.5,771z"/>
</g>
</svg>
